<svg id="圖層_1" data-name="圖層 1" xmlns="http://www.w3.org/2000/svg" viewBox="0 0 300 300"><defs><style>.cls-1{fill:#f0e9d1;stroke-width:1.75px;}.cls-1,.cls-4,.cls-5,.cls-6,.cls-7{stroke:#633974;stroke-miterlimit:10;}.cls-2{fill:#55506c;}.cls-3{fill:#f5a418;}.cls-4,.cls-5{fill:#633974;}.cls-4{stroke-width:1.97px;}.cls-5{stroke-width:1.57px;}.cls-6,.cls-7{fill:none;}.cls-6{stroke-width:1.36px;}.cls-7{stroke-width:2.09px;}.cls-8{fill:#fff;}.cls-9{fill:#eb655d;}.cls-10{fill:#78bf5b;}</style></defs><title>404</title><rect class="cls-1" x="42.36" y="87.37" width="217.58" height="145.26" rx="11.78" ry="11.78"/><circle class="cls-2" cx="274.8" cy="213.13" r="9.13"/><circle class="cls-3" cx="36.97" cy="90.53" r="9.13"/><path class="cls-4" d="M48.37,102.65l-11-5.87v-2l11-5.83v2l-9,4.79,9,4.89Z"/><path class="cls-5" d="M7.68,195.53l-8.8-4.69v-1.59l8.8-4.66v1.6L.52,190l7.16,3.9Z"/><path class="cls-5" d="M17,181.31,9.88,198.68H8.42l7.13-17.37Z"/><path class="cls-5" d="M26.55,190.84l-8.81,4.69v-1.6l7.17-3.9-7.17-3.84v-1.6l8.81,4.66Z"/><circle class="cls-6" cx="252.57" cy="77.77" r="5.31"/><circle class="cls-7" cx="283.93" cy="112.74" r="8.18"/><circle class="cls-2" cx="122.23" cy="83.41" r="5.75"/><rect class="cls-8" x="50.7" y="126.26" width="200.9" height="97" rx="6" ry="6"/><rect class="cls-8" x="50.7" y="110.33" width="200.9" height="10.25" rx="4.72" ry="4.72"/><path class="cls-3" d="M176.93,136.4q0,16.8-14.53,21.19-3.94,1.13-4,3.94v12.73h-17V154.54a9.52,9.52,0,0,1,1.69-5.86c1.05-1.35,3.22-3.11,6.53-5.29a33.89,33.89,0,0,0,5.3-3.72,5.19,5.19,0,0,0,1.69-3.94q0-4.06-6.65-4.06c-2.93,0-4.92.67-6,2s-1.69,3.79-1.69,7.1c0,.3.22,1.73.67,4.28H123.07q0-32.34,27.72-32.34,11.15,0,18.59,6.42T176.93,136.4Zm-15.66,57.36-5.07,5.07H144.14l-5-5V181.7l4.74-4.85h12.62l4.73,4.74Z"/><circle class="cls-9" cx="54.33" cy="100.82" r="3.83"/><circle class="cls-3" cx="65.03" cy="100.82" r="3.83"/><circle class="cls-10" cx="75.74" cy="100.82" r="3.83"/></svg>